<svg width="1440" height="795" viewBox="0 0 1440 795" fill="none" xmlns="http://www.w3.org/2000/svg">
<g clip-path="url(#clip0)">
<rect width="1440" height="795" fill="white"/>
<path d="M1947 -195.882C1947 -51.7356 1584.67 519.618 1398 519.618C1211.33 519.618 865 714.264 865 570.118C865 425.971 1129.83 -58.8819 1316.5 -58.8819C1503.17 -58.8819 1947 -340.028 1947 -195.882Z" fill="#7E57C2"/>
<path d="M1439.5 769C1439.5 796.614 998.149 911.5 817 911.5C635.851 911.5 473 835.114 473 807.5C473 779.886 490.851 564 672 564C853.149 564 1439.5 741.386 1439.5 769Z" fill="#7E57C2"/>
<path d="M1336.07 759C1336.07 869.457 32.4569 929.5 -78 929.5C-188.457 929.5 -267 1055.46 -267 945C-267 834.543 185.612 623 296.069 623C406.526 623 1336.07 648.543 1336.07 759Z" fill="#7E57C2"/>
<path d="M928 473H1628V912H928V473Z" fill="#7E57C2"/>
</g>
<defs>
<clipPath id="clip0">
<rect width="1440" height="795" fill="white"/>
</clipPath>
</defs>
</svg>
