<svg width="1440" height="599" viewBox="0 0 1440 599" fill="none" xmlns="http://www.w3.org/2000/svg">
<g clip-path="url(#clip0)">
<rect width="1440" height="599" fill="white"/>
<path d="M1319.5 541C1319.5 568.614 878.149 683.5 697 683.5C515.851 683.5 353 607.114 353 579.5C353 551.886 450.851 352 632 352C813.149 352 1319.5 513.386 1319.5 541Z" fill="#0A043C"/>
<path d="M1252.07 575C1252.07 685.457 -51.5431 745.5 -162 745.5C-272.457 745.5 -351 871.457 -351 761C-351 650.543 101.612 439 212.069 439C322.526 439 1252.07 464.543 1252.07 575Z" fill="#0A043C"/>
<path d="M912 403H1728V842H912V403Z" fill="#0A043C"/>
<path d="M1600 366.332C1600 447.116 1446.78 512.604 1257.77 512.604C1068.76 512.604 672 542.467 672 461.683C672 380.899 982.99 242 1172 242C1361.01 242 1600 285.547 1600 366.332Z" fill="#0A043C"/>
<path d="M1644 169C1644 225.885 1531.18 272 1392 272C1252.82 272 996 372.885 996 316C996 259.115 1252.82 66 1392 66C1531.18 66 1644 112.115 1644 169Z" fill="#0A043C"/>
</g>
<defs>
<clipPath id="clip0">
<rect width="1440" height="599" fill="white"/>
</clipPath>
</defs>
</svg>
