<svg width="1016" height="484" viewBox="0 0 1016 484" fill="none" xmlns="http://www.w3.org/2000/svg">
<g clip-path="url(#clip0)">
<rect width="1016" height="484" fill="white"/>
<path d="M1319.5 431C1319.5 458.614 878.149 573.5 697 573.5C515.851 573.5 353 497.114 353 469.5C353 441.886 450.851 242 632 242C813.149 242 1319.5 403.386 1319.5 431Z" fill="#0A043C"/>
<path d="M1240.07 469C1240.07 579.457 -63.5431 639.5 -174 639.5C-284.457 639.5 -363 765.457 -363 655C-363 544.543 89.6124 333 200.069 333C310.526 333 1240.07 358.543 1240.07 469Z" fill="#0A043C"/>
<path d="M636 264H1452V703H636V264Z" fill="#0A043C"/>
<path d="M1564 146.332C1564 227.116 1410.78 292.604 1221.77 292.604C1032.76 292.604 636 322.467 636 241.683C636 160.899 946.99 22 1136 22C1325.01 22 1564 65.5475 1564 146.332Z" fill="#0A043C"/>
<path d="M1644 169C1644 225.885 1531.18 272 1392 272C1252.82 272 996 372.885 996 316C996 259.115 1252.82 66 1392 66C1531.18 66 1644 112.115 1644 169Z" fill="#0A043C"/>
</g>
<defs>
<clipPath id="clip0">
<rect width="1016" height="484" fill="white"/>
</clipPath>
</defs>
</svg>
