<svg width="672" height="476" viewBox="0 0 672 476" fill="none" xmlns="http://www.w3.org/2000/svg">
<g clip-path="url(#clip0)">
<rect width="672" height="476" fill="white"/>
<path d="M1119.5 427C1119.5 454.614 678.149 569.5 497 569.5C315.851 569.5 153 493.114 153 465.5C153 437.886 250.851 238 432 238C613.149 238 1119.5 399.386 1119.5 427Z" fill="#0A043C"/>
<path d="M1154.07 491C1154.07 601.457 -149.543 661.5 -260 661.5C-370.457 661.5 -449 787.457 -449 677C-449 566.543 3.61239 355 114.069 355C224.526 355 1154.07 380.543 1154.07 491Z" fill="#0A043C"/>
<path d="M392 184H1208V623H392V184Z" fill="#0A043C"/>
<path d="M1001 103C1001 159.885 888.176 206 749 206C609.824 206 353 306.885 353 250C353 193.115 609.824 0 749 0C888.176 0 1001 46.1147 1001 103Z" fill="#0A043C"/>
</g>
<defs>
<clipPath id="clip0">
<rect width="672" height="476" fill="white"/>
</clipPath>
</defs>
</svg>
